<svg width="751" height="638" viewBox="0 0 751 638" fill="none" xmlns="http://www.w3.org/2000/svg">
<path d="M193.368 105.874C192.658 71.2715 217.241 1.65267 321.259 0C321.259 75.9196 269.037 105.874 193.368 105.874V197.804V298.772V394.847C193.376 395.07 193.383 395.293 193.388 395.517C194.896 235.869 282.094 197.804 373.481 197.804C373.481 280.438 361.758 399.74 193.368 399.74V555.711C194.789 576.369 209.994 617.686 259.445 617.686H357.495C386.057 617.686 413.624 597.716 415.045 587.732V555.711V518.009C360.159 518.009 339.91 474.11 339.91 434.859C375.612 436.925 415.045 460.682 415.045 518.009C415.045 485.472 451.281 460.682 479.523 460.682C479.523 488.055 455.011 518.009 415.045 518.009V555.711V587.732C414.335 597.716 433.696 617.686 467.8 617.686H626.597C657.504 617.686 685.747 610.972 685.747 539.701C554.659 539.701 513.094 452.935 513.094 353.775C626.597 353.775 685.747 444.672 685.747 539.701V382.18V217.43C644.182 217.43 609.012 179.212 609.012 128.599C661.767 131.181 685.747 170.948 685.747 217.43V382.18C686.812 355.152 706.529 301.096 776.868 301.096C776.868 368.752 724.114 382.18 685.747 382.18V539.701C685.747 610.972 657.504 617.686 626.597 617.686H467.8C433.696 617.686 414.335 597.716 415.045 587.732C413.624 597.716 386.057 617.686 357.495 617.686H259.445C209.994 617.686 194.789 576.369 193.368 555.711V399.74C124.627 399.74 98.5164 347.061 98.5164 301.096C148.894 301.096 191.837 350.12 193.368 394.847V298.772V197.804C119.831 197.804 67.6096 151.839 67.6096 69.2057C171.521 69.2057 193.368 128.599 193.368 197.804V105.874Z" fill="#7DC07B"/>
<path d="M195.5 416.267C195.5 253.065 283.425 214.331 375.612 214.331C375.612 296.965 363.889 416.267 195.5 416.267ZM195.5 416.267C195.5 355.841 152.87 317.623 100.648 317.623C100.648 363.588 126.759 416.267 195.5 416.267ZM195.5 416.267C195.5 457.584 195.5 546.621 195.5 572.238M195.5 416.267C195.922 397.158 255.715 299.547 349.501 246.351M195.5 416.267C173.652 379.598 173.119 378.565 139.548 355.841M195.5 416.267V355.841V315.299V214.331M195.5 122.401C194.789 87.7982 219.373 18.1794 323.39 16.5267C323.39 92.4464 271.168 122.401 195.5 122.401ZM195.5 122.401V214.331M195.5 122.401C214.684 100.193 232.268 76.9526 278.096 53.1954M195.5 214.331C195.5 145.125 173.652 85.7324 69.7411 85.7324C69.7411 168.366 121.963 214.331 195.5 214.331ZM195.5 214.331C175.251 176.113 164.593 151.323 117.167 122.401M195.5 572.238C195.5 604.258 164.593 632.147 117.167 634.213C79.2263 635.866 25.3347 634.902 3.13147 634.213M195.5 572.238C196.921 592.896 212.126 634.213 261.577 634.213C311.028 634.213 330.495 634.213 359.626 634.213C388.188 634.213 415.756 614.243 417.177 604.258M417.177 604.258C416.466 614.243 435.827 634.213 469.931 634.213C512.562 634.213 597.822 634.213 628.729 634.213C659.636 634.213 687.878 627.499 687.878 556.227M417.177 604.258V572.238V534.536M687.878 556.227C687.878 634.213 723.048 634.213 747.027 634.213M687.878 556.227C556.79 556.227 515.226 469.462 515.226 370.302C625.703 370.302 684.686 456.418 687.752 548.639M687.878 556.227V398.707M687.878 556.227C687.878 553.695 687.836 551.165 687.752 548.639M417.177 534.536C417.177 477.209 377.744 453.452 342.041 451.386C342.041 490.637 362.29 534.536 417.177 534.536ZM417.177 534.536C417.177 501.999 453.412 477.209 481.655 477.209C481.655 504.581 457.142 534.536 417.177 534.536ZM417.177 534.536C431.671 516.357 450.57 501.138 458.208 495.802M417.177 534.536C401.723 510.263 391.599 497.868 369.751 482.374M687.878 233.956C687.878 187.475 663.899 147.708 611.144 145.125C611.144 195.738 646.314 233.956 687.878 233.956ZM687.878 233.956V398.707M687.878 233.956L653.774 188.508M687.878 398.707C688.944 371.679 708.66 317.623 779 317.623C779 385.279 726.245 398.707 687.878 398.707ZM687.878 398.707C702.799 384.659 733.528 358.423 747.027 347.061M687.752 548.639C658.57 509.746 640.387 477.209 578.105 433.826" stroke="#103732" stroke-width="5" stroke-linecap="round" stroke-linejoin="round"/>
</svg>
