<svg width="1920" height="960" viewBox="0 0 1920 960" fill="none" xmlns="http://www.w3.org/2000/svg">
<g clip-path="url(#clip0_36_2)">
<rect width="1920" height="960" fill="#E6ECE1"/>
<path d="M1362.37 370.874C1361.66 336.271 1386.24 266.653 1490.26 265C1490.26 340.92 1438.04 370.874 1362.37 370.874V462.804V563.772V659.847C1362.38 660.07 1362.38 660.293 1362.39 660.517C1363.9 500.869 1451.09 462.804 1542.48 462.804C1542.48 545.438 1530.76 664.74 1362.37 664.74V820.711C1363.79 841.369 1378.99 882.686 1428.45 882.686H1526.49C1555.06 882.686 1582.62 862.716 1584.05 852.732V820.711V783.009C1529.16 783.009 1508.91 739.11 1508.91 699.859C1544.61 701.925 1584.05 725.682 1584.05 783.009C1584.05 750.472 1620.28 725.682 1648.52 725.682C1648.52 753.055 1624.01 783.009 1584.05 783.009V820.711V852.732C1583.33 862.716 1602.7 882.686 1636.8 882.686H1795.6C1826.5 882.686 1854.75 875.972 1854.75 804.701C1723.66 804.701 1682.09 717.935 1682.09 618.775C1795.6 618.775 1854.75 709.672 1854.75 804.701V647.18V482.43C1813.18 482.43 1778.01 444.212 1778.01 393.599C1830.77 396.181 1854.75 435.948 1854.75 482.43V647.18C1855.81 620.152 1875.53 566.096 1945.87 566.096C1945.87 633.752 1893.11 647.18 1854.75 647.18V804.701C1854.75 875.972 1826.5 882.686 1795.6 882.686H1636.8C1602.7 882.686 1583.33 862.716 1584.05 852.732C1582.62 862.716 1555.06 882.686 1526.49 882.686H1428.45C1378.99 882.686 1363.79 841.369 1362.37 820.711V664.74C1293.63 664.74 1267.52 612.061 1267.52 566.096C1317.89 566.096 1360.84 615.12 1362.37 659.847V563.772V462.804C1288.83 462.804 1236.61 416.839 1236.61 334.206C1340.52 334.206 1362.37 393.599 1362.37 462.804V370.874Z" fill="#7DC07B"/>
<path d="M1364.5 681.267C1364.5 518.065 1452.42 479.331 1544.61 479.331C1544.61 561.965 1532.89 681.267 1364.5 681.267ZM1364.5 681.267C1364.5 620.841 1321.87 582.623 1269.65 582.623C1269.65 628.588 1295.76 681.267 1364.5 681.267ZM1364.5 681.267C1364.5 722.584 1364.5 811.621 1364.5 837.238M1364.5 681.267C1364.92 662.158 1424.72 564.547 1518.5 511.351M1364.5 681.267C1342.65 644.598 1342.12 643.565 1308.55 620.841M1364.5 681.267V620.841V580.299V479.331M1364.5 387.401C1363.79 352.798 1388.37 283.179 1492.39 281.527C1492.39 357.446 1440.17 387.401 1364.5 387.401ZM1364.5 387.401V479.331M1364.5 387.401C1383.68 365.193 1401.27 341.953 1447.1 318.195M1364.5 479.331C1364.5 410.125 1342.65 350.732 1238.74 350.732C1238.74 433.366 1290.96 479.331 1364.5 479.331ZM1364.5 479.331C1344.25 441.113 1333.59 416.323 1286.17 387.401M1364.5 837.238C1364.5 869.258 1333.59 897.147 1286.17 899.213C1248.23 900.866 1194.33 899.902 1172.13 899.213M1364.5 837.238C1365.92 857.896 1381.13 899.213 1430.58 899.213C1480.03 899.213 1499.5 899.213 1528.63 899.213C1557.19 899.213 1584.76 879.243 1586.18 869.258M1586.18 869.258C1585.47 879.243 1604.83 899.213 1638.93 899.213C1681.56 899.213 1766.82 899.213 1797.73 899.213C1828.64 899.213 1856.88 892.499 1856.88 821.227M1586.18 869.258V837.238V799.536M1856.88 821.227C1856.88 899.213 1892.05 899.213 1916.03 899.213M1856.88 821.227C1725.79 821.227 1684.23 734.462 1684.23 635.302C1794.7 635.302 1853.69 721.418 1856.75 813.639M1856.88 821.227V663.707M1856.88 821.227C1856.88 818.695 1856.84 816.165 1856.75 813.639M1586.18 799.536C1586.18 742.209 1546.74 718.452 1511.04 716.386C1511.04 755.637 1531.29 799.536 1586.18 799.536ZM1586.18 799.536C1586.18 766.999 1622.41 742.209 1650.65 742.209C1650.65 769.581 1626.14 799.536 1586.18 799.536ZM1586.18 799.536C1600.67 781.357 1619.57 766.138 1627.21 760.802M1586.18 799.536C1570.72 775.263 1560.6 762.868 1538.75 747.374M1856.88 498.956C1856.88 452.475 1832.9 412.708 1780.14 410.125C1780.14 460.738 1815.31 498.956 1856.88 498.956ZM1856.88 498.956V663.707M1856.88 498.956L1822.77 453.508M1856.88 663.707C1857.94 636.679 1877.66 582.623 1948 582.623C1948 650.279 1895.25 663.707 1856.88 663.707ZM1856.88 663.707C1871.8 649.659 1902.53 623.423 1916.03 612.061M1856.75 813.639C1827.57 774.746 1809.39 742.209 1747.11 698.826" stroke="#103732" stroke-width="5" stroke-linecap="round" stroke-linejoin="round"/>
</g>
<defs>
<clipPath id="clip0_36_2">
<rect width="1920" height="960" fill="white"/>
</clipPath>
</defs>
</svg>
